<svg width="20" height="20" viewBox="0 0 20 20" fill="none" xmlns="http://www.w3.org/2000/svg">
<path d="M13.3667 6.04746C12.2025 5.17496 10.5733 4.78829 8.99333 5.11496C5.8575 5.76496 4.2225 8.27413 4.16833 11.3983C4.12333 13.9375 5.735 17.065 8.18667 18.0758C9.65333 18.6808 11.5583 18.0625 12.1558 16.515C12.3783 15.9375 12.3342 15.3766 12.2408 14.8116L12.1742 14.435C12.1258 14.1741 12.0767 13.9108 12.0492 13.6441C11.9933 13.1033 12.3025 12.7666 12.6933 12.4875L12.8933 12.3525L13.3567 12.0608L13.5783 11.9083C14.1033 11.5325 14.66 10.9975 14.89 10.0425C15.2942 8.37163 14.5483 6.93413 13.3667 6.04746ZM15.8333 2.91663C15.3913 2.91663 14.9674 3.09222 14.6548 3.40478C14.3423 3.71734 14.1667 4.14127 14.1667 4.58329C14.1667 5.02532 14.3423 5.44924 14.6548 5.7618C14.9674 6.07436 15.3913 6.24996 15.8333 6.24996C16.2754 6.24996 16.6993 6.07436 17.0118 5.7618C17.3244 5.44924 17.5 5.02532 17.5 4.58329C17.5 4.14127 17.3244 3.71734 17.0118 3.40478C16.6993 3.09222 16.2754 2.91663 15.8333 2.91663ZM4.58333 3.74996C4.36232 3.74996 4.15036 3.83776 3.99408 3.99404C3.8378 4.15032 3.75 4.36228 3.75 4.58329C3.75 4.80431 3.8378 5.01627 3.99408 5.17255C4.15036 5.32883 4.36232 5.41663 4.58333 5.41663C4.80435 5.41663 5.01631 5.32883 5.17259 5.17255C5.32887 5.01627 5.41667 4.80431 5.41667 4.58329C5.41667 4.36228 5.32887 4.15032 5.17259 3.99404C5.01631 3.83776 4.80435 3.74996 4.58333 3.74996ZM12.0833 1.66663C11.9192 1.66663 11.7566 1.69896 11.605 1.76178C11.4533 1.8246 11.3155 1.91667 11.1995 2.03274C11.0834 2.14882 10.9913 2.28661 10.9285 2.43827C10.8657 2.58993 10.8333 2.75247 10.8333 2.91663C10.8333 3.08078 10.8657 3.24332 10.9285 3.39498C10.9913 3.54664 11.0834 3.68444 11.1995 3.80051C11.3155 3.91658 11.4533 4.00866 11.605 4.07148C11.7566 4.13429 11.9192 4.16663 12.0833 4.16663C12.4149 4.16663 12.7328 4.03493 12.9672 3.80051C13.2016 3.56609 13.3333 3.24815 13.3333 2.91663C13.3333 2.58511 13.2016 2.26716 12.9672 2.03274C12.7328 1.79832 12.4149 1.66663 12.0833 1.66663ZM7.91667 1.66663C7.75251 1.66663 7.58997 1.69896 7.43831 1.76178C7.28666 1.8246 7.14886 1.91667 7.03278 2.03274C6.91671 2.14882 6.82464 2.28661 6.76182 2.43827C6.699 2.58993 6.66667 2.75247 6.66667 2.91663C6.66667 3.08078 6.699 3.24332 6.76182 3.39498C6.82464 3.54664 6.91671 3.68444 7.03278 3.80051C7.14886 3.91658 7.28666 4.00866 7.43831 4.07148C7.58997 4.13429 7.75251 4.16663 7.91667 4.16663C8.24819 4.16663 8.56613 4.03493 8.80055 3.80051C9.03497 3.56609 9.16667 3.24815 9.16667 2.91663C9.16667 2.58511 9.03497 2.26716 8.80055 2.03274C8.56613 1.79832 8.24819 1.66663 7.91667 1.66663Z" fill="#444444"/>
</svg>
