<svg width="70" height="70" viewBox="0 0 70 70" fill="none" xmlns="http://www.w3.org/2000/svg">
<path d="M0 35C0 15.67 15.67 0 35 0C54.33 0 70 15.67 70 35C70 54.33 54.33 70 35 70C15.67 70 0 54.33 0 35Z" fill="#858282"/>
<path d="M29.25 24.1787C29.48 23.7647 29.8166 23.4197 30.2249 23.1794C30.6331 22.9392 31.0982 22.8125 31.5719 22.8125H35.9281C36.4018 22.8125 36.8669 22.9392 37.2751 23.1794C37.6834 23.4197 38.02 23.7647 38.25 24.1787L39.0537 25.625H41.4062C42.3594 25.625 43.2735 26.0036 43.9474 26.6776C44.6214 27.3515 45 28.2656 45 29.2188V33.465C43.6943 32.6286 42.1756 32.1851 40.625 32.1875C39.8869 32.1875 39.1712 32.2862 38.4913 32.4706C38.2136 31.6447 37.7249 30.9056 37.0737 30.3267C36.4224 29.7478 35.6311 29.3492 34.7783 29.1703C33.9255 28.9914 33.0408 29.0385 32.2118 29.3069C31.3828 29.5753 30.6383 30.0557 30.0522 30.7004C29.466 31.3452 29.0585 32.1319 28.8701 32.9827C28.6817 33.8334 28.7189 34.7187 28.978 35.5506C29.2372 36.3826 29.7092 37.1323 30.3473 37.7257C30.9855 38.319 31.7677 38.7352 32.6163 38.9331C32.3577 40.4523 32.5332 42.0136 33.1225 43.4375H26.0938C25.1406 43.4375 24.2265 43.0589 23.5526 42.3849C22.8786 41.711 22.5 40.7969 22.5 39.8438V29.2188C22.5 28.2656 22.8786 27.3515 23.5526 26.6776C24.2265 26.0036 25.1406 25.625 26.0938 25.625H28.4469L29.25 24.1787ZM33.75 30.625C32.9003 30.6238 32.0803 30.9373 31.4482 31.5051C30.8161 32.0729 30.4166 32.8547 30.3269 33.6996C30.2372 34.5445 30.4636 35.3927 30.9624 36.0806C31.4612 36.7684 32.1971 37.2471 33.0281 37.4244C33.7604 35.5068 35.1887 33.9359 37.0281 33.025C36.8076 32.3285 36.371 31.7204 35.7816 31.2889C35.1921 30.8573 34.4805 30.6248 33.75 30.625ZM40.625 47.1875C44.4219 47.1875 47.5 44.1094 47.5 40.3125C47.5 36.5156 44.4219 33.4375 40.625 33.4375C36.8281 33.4375 33.75 36.5156 33.75 40.3125C33.75 44.1094 36.8281 47.1875 40.625 47.1875ZM40.625 35.9375C40.7908 35.9375 40.9497 36.0033 41.0669 36.1206C41.1842 36.2378 41.25 36.3967 41.25 36.5625V39.6875H44.375C44.5408 39.6875 44.6997 39.7533 44.8169 39.8706C44.9342 39.9878 45 40.1467 45 40.3125C45 40.4783 44.9342 40.6372 44.8169 40.7544C44.6997 40.8717 44.5408 40.9375 44.375 40.9375H41.25V44.0625C41.25 44.2283 41.1842 44.3872 41.0669 44.5044C40.9497 44.6217 40.7908 44.6875 40.625 44.6875C40.4592 44.6875 40.3003 44.6217 40.1831 44.5044C40.0658 44.3872 40 44.2283 40 44.0625V40.9375H36.875C36.7092 40.9375 36.5503 40.8717 36.4331 40.7544C36.3158 40.6372 36.25 40.4783 36.25 40.3125C36.25 40.1467 36.3158 39.9878 36.4331 39.8706C36.5503 39.7533 36.7092 39.6875 36.875 39.6875H40V36.5625C40 36.3967 40.0658 36.2378 40.1831 36.1206C40.3003 36.0033 40.4592 35.9375 40.625 35.9375Z" fill="#757575"/>
</svg>
