<svg width="20" height="20" viewBox="0 0 20 20" fill="none" xmlns="http://www.w3.org/2000/svg">
<path d="M6.63333 6.04746C7.7975 5.17496 9.42667 4.78829 11.0067 5.11496C14.1425 5.76496 15.7775 8.27413 15.8317 11.3983C15.8767 13.9375 14.265 17.065 11.8133 18.0758C10.3467 18.6808 8.44167 18.0625 7.84417 16.515C7.62167 15.9375 7.66583 15.3766 7.75917 14.8116L7.82583 14.435C7.87417 14.1741 7.92333 13.9108 7.95083 13.6441C8.00667 13.1033 7.6975 12.7666 7.30667 12.4875L7.10667 12.3525L6.64333 12.0608L6.42167 11.9083C5.89667 11.5325 5.34 10.9975 5.11 10.0425C4.70583 8.37163 5.45167 6.93413 6.63333 6.04746ZM4.16667 2.91663C4.60869 2.91663 5.03262 3.09222 5.34518 3.40478C5.65774 3.71734 5.83333 4.14127 5.83333 4.58329C5.83333 5.02532 5.65774 5.44924 5.34518 5.7618C5.03262 6.07436 4.60869 6.24996 4.16667 6.24996C3.72464 6.24996 3.30072 6.07436 2.98816 5.7618C2.67559 5.44924 2.5 5.02532 2.5 4.58329C2.5 4.14127 2.67559 3.71734 2.98816 3.40478C3.30072 3.09222 3.72464 2.91663 4.16667 2.91663ZM15.4167 3.74996C15.6377 3.74996 15.8496 3.83776 16.0059 3.99404C16.1622 4.15032 16.25 4.36228 16.25 4.58329C16.25 4.80431 16.1622 5.01627 16.0059 5.17255C15.8496 5.32883 15.6377 5.41663 15.4167 5.41663C15.1957 5.41663 14.9837 5.32883 14.8274 5.17255C14.6711 5.01627 14.5833 4.80431 14.5833 4.58329C14.5833 4.36228 14.6711 4.15032 14.8274 3.99404C14.9837 3.83776 15.1957 3.74996 15.4167 3.74996ZM7.91667 1.66663C8.08082 1.66663 8.24336 1.69896 8.39502 1.76178C8.54668 1.8246 8.68448 1.91667 8.80055 2.03274C8.91662 2.14882 9.0087 2.28661 9.07152 2.43827C9.13433 2.58993 9.16667 2.75247 9.16667 2.91663C9.16667 3.08078 9.13433 3.24332 9.07152 3.39498C9.0087 3.54664 8.91662 3.68444 8.80055 3.80051C8.68448 3.91658 8.54668 4.00866 8.39502 4.07148C8.24336 4.13429 8.08082 4.16663 7.91667 4.16663C7.58515 4.16663 7.2672 4.03493 7.03278 3.80051C6.79836 3.56609 6.66667 3.24815 6.66667 2.91663C6.66667 2.58511 6.79836 2.26716 7.03278 2.03274C7.2672 1.79832 7.58515 1.66663 7.91667 1.66663ZM12.0833 1.66663C12.2475 1.66663 12.41 1.69896 12.5617 1.76178C12.7133 1.8246 12.8511 1.91667 12.9672 2.03274C13.0833 2.14882 13.1754 2.28661 13.2382 2.43827C13.301 2.58993 13.3333 2.75247 13.3333 2.91663C13.3333 3.08078 13.301 3.24332 13.2382 3.39498C13.1754 3.54664 13.0833 3.68444 12.9672 3.80051C12.8511 3.91658 12.7133 4.00866 12.5617 4.07148C12.41 4.13429 12.2475 4.16663 12.0833 4.16663C11.7518 4.16663 11.4339 4.03493 11.1994 3.80051C10.965 3.56609 10.8333 3.24815 10.8333 2.91663C10.8333 2.58511 10.965 2.26716 11.1994 2.03274C11.4339 1.79832 11.7518 1.66663 12.0833 1.66663Z" fill="#444444"/>
</svg>
