<svg width="25" height="25" viewBox="0 0 25 25" fill="none" xmlns="http://www.w3.org/2000/svg">
<path d="M21.35 5.8615C21.808 6.02246 22.2048 6.32168 22.4854 6.71782C22.766 7.11397 22.9167 7.58748 22.9167 8.07296V18.4896C22.9167 19.6638 22.4503 20.7898 21.62 21.62C20.7898 22.4503 19.6637 22.9167 18.4896 22.9167H8.07293C7.58745 22.9168 7.11393 22.7661 6.71779 22.4854C6.32165 22.2048 6.02243 21.8081 5.86147 21.35L8.04584 21.3542H18.4896C19.2493 21.3542 19.9779 21.0524 20.5152 20.5152C21.0524 19.978 21.3542 19.2494 21.3542 18.4896V8.07296L21.35 8.01983V5.8615ZM17.9646 2.08337C18.5862 2.08337 19.1823 2.3303 19.6219 2.76984C20.0614 3.20938 20.3083 3.80552 20.3083 4.42712V17.9657C20.3083 18.5873 20.0614 19.1834 19.6219 19.6229C19.1823 20.0625 18.5862 20.3094 17.9646 20.3094H4.42709C3.80549 20.3094 3.20935 20.0625 2.76981 19.6229C2.33027 19.1834 2.08334 18.5873 2.08334 17.9657V4.42712C2.08334 3.80552 2.33027 3.20938 2.76981 2.76984C3.20935 2.3303 3.80549 2.08337 4.42709 2.08337H17.9646ZM17.9646 3.64587H4.42709C4.21989 3.64587 4.02118 3.72818 3.87467 3.8747C3.72815 4.02121 3.64584 4.21992 3.64584 4.42712V17.9657C3.64584 18.3969 3.99584 18.7469 4.42709 18.7469H17.9656C18.1728 18.7469 18.3715 18.6646 18.5181 18.5181C18.6646 18.3716 18.7469 18.1729 18.7469 17.9657V4.42712C18.7469 4.21992 18.6646 4.02121 18.5181 3.8747C18.3715 3.72818 18.1718 3.64587 17.9646 3.64587ZM11.1979 7.03129C11.4051 7.03129 11.6038 7.1136 11.7504 7.26011C11.8969 7.40663 11.9792 7.60534 11.9792 7.81254V10.4167H14.5833C14.7905 10.4167 14.9893 10.499 15.1358 10.6455C15.2823 10.792 15.3646 10.9908 15.3646 11.198C15.3646 11.4052 15.2823 11.6039 15.1358 11.7504C14.9893 11.8969 14.7905 11.9792 14.5833 11.9792H11.9792V14.5834C11.9792 14.7906 11.8969 14.9893 11.7504 15.1358C11.6038 15.2823 11.4051 15.3646 11.1979 15.3646C10.9907 15.3646 10.792 15.2823 10.6455 15.1358C10.499 14.9893 10.4167 14.7906 10.4167 14.5834V11.9792H7.81251C7.60531 11.9792 7.4066 11.8969 7.26008 11.7504C7.11357 11.6039 7.03126 11.4052 7.03126 11.198C7.03126 10.9908 7.11357 10.792 7.26008 10.6455C7.4066 10.499 7.60531 10.4167 7.81251 10.4167H10.4167V7.81254C10.4167 7.60534 10.499 7.40663 10.6455 7.26011C10.792 7.1136 10.9907 7.03129 11.1979 7.03129Z" fill="#757575"/>
</svg>
